<svg xmlns="http://www.w3.org/2000/svg" width="1200" height="630" viewBox="0 0 1200 630" role="img" aria-labelledby="title desc">
  <title id="title">IT Outsource Ltd. social preview</title>
  <desc id="desc">Enterprise IT services, cloud, security and operations social preview image.</desc>
  <defs>
    <linearGradient id="bg" x1="0" y1="0" x2="1" y2="1">
      <stop offset="0" stop-color="#ffffff"/>
      <stop offset="0.52" stop-color="#f5fbf1"/>
      <stop offset="1" stop-color="#eef8e8"/>
    </linearGradient>
    <radialGradient id="glow" cx="72%" cy="42%" r="52%">
      <stop offset="0" stop-color="#a8e879" stop-opacity="0.64"/>
      <stop offset="0.52" stop-color="#a8e879" stop-opacity="0.18"/>
      <stop offset="1" stop-color="#a8e879" stop-opacity="0"/>
    </radialGradient>
    <filter id="softShadow" x="-20%" y="-20%" width="140%" height="140%">
      <feDropShadow dx="0" dy="22" stdDeviation="28" flood-color="#12330f" flood-opacity="0.14"/>
    </filter>
    <pattern id="grid" width="46" height="46" patternUnits="userSpaceOnUse">
      <path d="M46 0H0V46" fill="none" stroke="#1b3216" stroke-opacity="0.06" stroke-width="1"/>
    </pattern>
  </defs>
  <rect width="1200" height="630" fill="url(#bg)"/>
  <rect width="1200" height="630" fill="url(#glow)"/>
  <rect width="1200" height="630" fill="url(#grid)"/>
  <circle cx="990" cy="120" r="210" fill="#a8e879" opacity="0.2"/>
  <circle cx="1090" cy="522" r="170" fill="#eef9e9" opacity="0.9"/>

  <g filter="url(#softShadow)">
    <rect x="78" y="76" width="1044" height="478" rx="42" fill="#ffffff" fill-opacity="0.82" stroke="#172111" stroke-opacity="0.12"/>
  </g>

  <g transform="translate(118 116)">
    <rect width="246" height="54" rx="27" fill="#e4f7d8" stroke="#94ce78" stroke-opacity="0.48"/>
    <circle cx="30" cy="27" r="7" fill="#74bd55"/>
    <text x="50" y="34" font-family="Inter, Arial, sans-serif" font-size="17" font-weight="700" letter-spacing="3" fill="#183113">IT OUTSOURCE</text>
  </g>

  <text x="118" y="256" font-family="Inter, Arial, sans-serif" font-size="70" line-height="1" font-weight="800" letter-spacing="-2" fill="#121812">
    Enterprise IT that
  </text>
  <text x="118" y="336" font-family="Inter, Arial, sans-serif" font-size="70" line-height="1" font-weight="800" letter-spacing="-2" fill="#121812">
    keeps business moving.
  </text>

  <text x="120" y="397" font-family="Inter, Arial, sans-serif" font-size="25" font-weight="500" fill="#4a5547">
    Managed IT · Microsoft cloud · Security · Backup &amp; DR
  </text>

  <g transform="translate(120 446)">
    <rect width="184" height="48" rx="24" fill="#d8f3c6" stroke="#8bc96b" stroke-opacity="0.48"/>
    <text x="26" y="31" font-family="Inter, Arial, sans-serif" font-size="17" font-weight="750" fill="#152413">Design</text>
    <rect x="202" width="174" height="48" rx="24" fill="#ffffff" stroke="#172111" stroke-opacity="0.12"/>
    <text x="228" y="31" font-family="Inter, Arial, sans-serif" font-size="17" font-weight="750" fill="#152413">Secure</text>
    <rect x="394" width="154" height="48" rx="24" fill="#ffffff" stroke="#172111" stroke-opacity="0.12"/>
    <text x="421" y="31" font-family="Inter, Arial, sans-serif" font-size="17" font-weight="750" fill="#152413">Operate</text>
  </g>

  <g transform="translate(830 190)">
    <circle cx="112" cy="112" r="112" fill="#effae9" stroke="#98d676" stroke-width="2"/>
    <circle cx="112" cy="112" r="70" fill="#ffffff" stroke="#172111" stroke-opacity="0.12"/>
    <path d="M112 58c38 0 68 24 80 54-12 30-42 54-80 54s-68-24-80-54c12-30 42-54 80-54Zm0 32a22 22 0 1 0 0 44 22 22 0 0 0 0-44Z" fill="#67ad4a" opacity="0.88"/>
    <path d="M112 26v34M112 164v34M26 112h34M164 112h34" stroke="#365d29" stroke-width="8" stroke-linecap="round" opacity="0.34"/>
  </g>
</svg>
